<?xml version="1.0" encoding="UTF-8"?>
<svg id="STYLE_GUIDE_definitivo" data-name="STYLE GUIDE definitivo" xmlns="http://www.w3.org/2000/svg" viewBox="0 0 448.51 434.75">
  <defs>
    <style>
      .cls-1 {
        fill: #1f140f;
      }
    </style>
  </defs>
  <path class="cls-1" d="M325.5,347.63c-4.75,0-7.35-3.59-11.52-9.93-2.65-4.03-6.26-9.91-10.74-17.47-7.47-12.63-17.52-30.21-29.85-52.27-2.11-3.77-4.21-7.54-6.29-11.28-30.62,15.85-53.08,14.98-73.6,14.19-7.67-.3-14.93-.58-22.42-.02-29.15,2.17-50.29,36.44-62.91,56.92-2.77,4.49-5.16,8.36-7.18,11.13-1.68,2.29-6.13,8.36-12.65,6.3-5.1-1.62-7.15-7.15-8.49-12.35-4.95-19.32-8.11-85.96,40.68-137.07,13.95-14.61,17.67-41.97,7.53-55.25-10.53-13.78-35.48-11.43-68.43,6.44l-7.24-13.35c55.06-29.85,78.6-14.26,87.74-2.31,16.02,20.96,8.67,56.86-8.61,74.96-39.24,41.11-41.24,94.37-38.18,116.61,.65-1.04,1.29-2.09,1.91-3.08,13.22-21.44,37.83-61.35,74.71-64.09,8.35-.62,16.37-.31,24.13-.01,19.14,.74,38.73,1.49,65.64-12.29-14.33-25.9-26.17-47.66-27.93-50.9-6.6-9.33-8.9-19.14-6.85-29.17,5.08-24.76,36.66-46.7,70.02-66.72,16.56-9.93,31.28-12.1,43.75-6.44,15.51,7.04,22.33,24.25,24.88,32.98,10.85,3.18,14.24,12.6,17.28,21.04,.78,2.17,1.59,4.42,2.54,6.7,1.4,3.36,3.97,6.66,6.7,10.17,3.89,5,7.91,10.16,9.61,16.72,.87,3.35,.66,8.64-5.25,14.78-4.21,4.37-10.11,8.09-14.33,10.44-9.83,5.48-12.06,4.99-13.86,4.59-1.14-.25-1.99-.7-2.67-1.06-4.83-2.57-11.29-2.57-18.96-.18-6.76,21.3-13.59,51.31-14.17,70.06-.94,30.4,1.76,46.23,3.21,54.73,1.02,5.96,1.69,9.89-1.28,13.4-.98,1.16-3.18,3.1-6.92,3.1Zm-45.24-98.52c13.25,23.79,26.22,46.74,35.72,62.86-.72-9.18-1.13-21-.67-36.04,.52-16.97,5.4-40.71,10.88-60.66-5.7,3.57-11.74,8.02-18.05,13.29-9.99,8.36-19.25,15.1-27.89,20.55Zm44.02-146.8c-6.17,0-13.37,2.45-21.5,7.32-27.24,16.35-59.02,37.57-62.95,56.75-1.22,5.92,.28,11.69,4.57,17.63l.29,.4,.23,.43c8.22,15.14,18,32.99,27.96,50.98,7.86-5,16.33-11.21,25.52-18.91,12.21-10.22,23.63-17.63,34.06-22.17,9.52-29.34,16.27-54.83,17.92-61.17l-.45-2.51c-.04-.19-4.05-21.01-17.53-27.09-2.47-1.11-5.18-1.67-8.12-1.67Zm30.83,87.07c4.78,0,9.23,.87,13.3,2.62,5.05-2.29,14.32-8.12,16.32-11.36-1.14-3.24-3.8-6.66-6.6-10.26-3.07-3.94-6.55-8.41-8.73-13.65-1.1-2.63-2.01-5.16-2.81-7.4-1.1-3.05-1.96-5.33-2.8-7.04-2.43,9.08-7.31,26.8-13.78,47.4,1.74-.21,3.44-.31,5.09-.31Z"/>
</svg>