<?xml version="1.0" encoding="UTF-8"?>
<svg id="STYLE_GUIDE_definitivo" data-name="STYLE GUIDE definitivo" xmlns="http://www.w3.org/2000/svg" viewBox="0 0 448.51 434.75">
  <defs>
    <style>
      .cls-1 {
        fill: #9fa193;
      }
    </style>
  </defs>
  <path class="cls-1" d="M327.85,298.31c-4.87,0-7.52-3.67-11.79-10.17-2.71-4.12-6.41-10.14-10.99-17.88-7.65-12.92-17.93-30.91-30.55-53.48-2.16-3.86-4.31-7.72-6.44-11.55-31.33,16.21-54.32,15.32-75.31,14.52-7.85-.3-15.27-.59-22.94-.02-29.83,2.22-51.46,37.29-64.38,58.24-2.83,4.59-5.28,8.56-7.35,11.38-1.72,2.34-6.27,8.56-12.94,6.45-5.22-1.65-7.32-7.32-8.68-12.64-5.07-19.77-8.29-87.96,41.63-140.25,14.27-14.95,18.08-42.95,7.7-56.53-10.78-14.1-36.3-11.7-70.03,6.59l-7.41-13.66c56.34-30.54,80.43-14.59,89.78-2.36,16.39,21.45,8.87,58.18-8.81,76.7-40.16,42.06-42.2,96.57-39.07,119.33,.66-1.07,1.32-2.14,1.95-3.15,13.53-21.94,38.71-62.77,76.45-65.58,8.54-.64,16.75-.32,24.69-.01,19.58,.75,39.63,1.53,67.17-12.58-14.67-26.51-26.78-48.77-28.58-52.08-6.75-9.54-9.11-19.58-7-29.85,5.2-25.34,37.51-47.79,71.65-68.27,16.94-10.16,32-12.38,44.77-6.59,15.87,7.2,22.85,24.81,25.46,33.75,11.1,3.25,14.57,12.89,17.68,21.53,.8,2.22,1.63,4.52,2.6,6.86,1.43,3.43,4.06,6.82,6.85,10.4,3.98,5.11,8.09,10.4,9.83,17.11,.89,3.43,.68,8.84-5.37,15.12-4.3,4.47-10.35,8.28-14.66,10.68-10.05,5.61-12.34,5.1-14.18,4.7-1.18-.26-2.04-.71-2.73-1.08-4.95-2.63-11.55-2.63-19.4-.19-6.91,21.79-13.91,52.5-14.5,71.69-.96,31.11,1.8,47.3,3.28,56,1.04,6.09,1.72,10.12-1.31,13.71-1,1.19-3.25,3.17-7.08,3.17Zm-46.29-100.81c13.55,24.35,26.83,47.83,36.56,64.33-.73-9.39-1.16-21.49-.69-36.88,.54-17.37,5.52-41.66,11.14-62.07-5.83,3.66-12.02,8.2-18.47,13.6-10.22,8.55-19.69,15.46-28.54,21.03Zm45.04-150.22c-6.32,0-13.68,2.5-22,7.49-27.88,16.73-60.39,38.44-64.42,58.07-1.24,6.06,.29,11.96,4.68,18.05l.29,.4,.24,.44c8.41,15.49,18.42,33.75,28.61,52.17,8.04-5.12,16.71-11.47,26.12-19.34,12.5-10.46,24.18-18.04,34.85-22.69,9.74-30.02,16.65-56.1,18.34-62.59l-.46-2.57c-.04-.2-4.14-21.5-17.94-27.72-2.53-1.14-5.3-1.71-8.31-1.71Zm31.55,89.09c4.89,0,9.44,.89,13.61,2.68,5.17-2.34,14.65-8.31,16.7-11.62-1.17-3.32-3.89-6.82-6.76-10.5-3.14-4.04-6.7-8.61-8.93-13.96-1.12-2.69-2.05-5.28-2.88-7.57-1.12-3.12-2.01-5.46-2.86-7.21-2.48,9.29-7.48,27.42-14.1,48.51,1.78-.21,3.51-.32,5.21-.32Z"/>
  <g>
    <path class="cls-1" d="M10.5,338.93h6.62v56.31h-6.62v-56.31Zm4.8,33.73l22.08-33.73h7.79l-29.63,43.65-.23-9.92Zm9.8-7.51l4.49-5.77,17.66,35.86h-7.82l-14.33-30.09Z"/>
    <path class="cls-1" d="M72.43,338.93h6.74l16.89,56.31h-7.2l-13.05-47.68-13.05,47.68h-7.2l16.89-56.31Zm-8.21,37.14h23.78v6.16h-23.78v-6.16Z"/>
    <path class="cls-1" d="M109.57,338.89h6.62v56.35h-6.62v-56.35Zm3.45,26.3h14.79c1.65,0,3.09-.33,4.32-1.01s2.16-1.65,2.81-2.94c.64-1.29,.98-2.8,1.01-4.53v-2.9c0-1.76-.33-3.29-.99-4.61-.66-1.32-1.59-2.32-2.81-3.02s-2.66-1.05-4.34-1.05h-14.79v-6.24h14.37c3.12,0,5.83,.58,8.13,1.74,2.3,1.16,4.06,2.84,5.29,5.04,1.23,2.2,1.84,4.78,1.84,7.75v3.29c0,3-.62,5.6-1.86,7.82s-3,3.92-5.29,5.11-4.99,1.78-8.11,1.78h-14.37v-6.24Zm13.67,4.49l6.24-1.78,11.7,27.34h-7.63l-10.3-25.56Z"/>
    <path class="cls-1" d="M160.08,338.93h6.62v56.31h-6.62v-56.31Zm3.83,0h26.34v6.24h-26.34v-6.24Zm0,25.25h23.24v6.2h-23.24v-6.2Zm0,24.83h26.34v6.24h-26.34v-6.24Z"/>
    <path class="cls-1" d="M205.52,338.93h6.08l23.43,45.9-1.39,.39v-46.28h6.51v56.28h-6.2l-23.47-45.51,1.51-.19v45.7h-6.47v-56.28Z"/>
    <path class="cls-1" d="M257.42,338.93h8.87v56.31h-8.87v-56.31Zm4.14,47.83h26.26v8.48h-26.26v-8.48Z"/>
    <path class="cls-1" d="M301.5,338.93h8.87v56.31h-8.87v-56.31Zm3.95,0h26.84v8.52h-26.84v-8.52Zm0,24.13h23.74v8.44h-23.74v-8.44Zm0,23.66h26.84v8.52h-26.84v-8.52Z"/>
    <path class="cls-1" d="M354.44,393.73c-2.58-1.39-4.58-3.39-5.98-5.98-1.41-2.59-2.11-5.64-2.11-9.12v-23.08c0-3.51,.7-6.56,2.11-9.14,1.41-2.58,3.4-4.57,5.98-5.96s5.62-2.09,9.1-2.09,6.52,.7,9.1,2.09,4.58,3.38,5.98,5.96c1.41,2.58,2.11,5.63,2.11,9.14v23.08c0,3.49-.7,6.53-2.11,9.12-1.41,2.59-3.4,4.59-5.98,5.98-2.58,1.39-5.62,2.09-9.1,2.09s-6.52-.7-9.1-2.09Zm13.44-7.71c1.24-.7,2.18-1.69,2.83-2.98,.65-1.29,.97-2.81,.97-4.57v-22.81c0-1.73-.32-3.24-.97-4.53-.65-1.29-1.59-2.29-2.83-2.98-1.24-.7-2.69-1.05-4.34-1.05s-3.1,.35-4.34,1.05c-1.24,.7-2.19,1.69-2.85,2.98-.66,1.29-.99,2.8-.99,4.53v22.81c0,1.76,.33,3.28,.99,4.57,.66,1.29,1.61,2.29,2.85,2.98s2.69,1.05,4.34,1.05,3.1-.35,4.34-1.05Z"/>
    <path class="cls-1" d="M396.35,338.93h8.52l19.33,41.83-1.05,1.12v-42.95h8.44v56.28h-8.64l-19.17-40.63,1.01-1.12v41.75h-8.44v-56.28Z"/>
  </g>
</svg>