<?xml version="1.0" encoding="UTF-8"?>
<svg id="STYLE_GUIDE_definitivo" data-name="STYLE GUIDE definitivo" xmlns="http://www.w3.org/2000/svg" viewBox="0 0 448.51 434.75">
  <defs>
    <style>
      .cls-1 {
        fill: #fff;
      }
    </style>
  </defs>
  <path class="cls-1" d="M325.5,285.99c-4.75,0-7.35-3.59-11.52-9.93-2.65-4.03-6.26-9.91-10.74-17.47-7.47-12.63-17.52-30.21-29.85-52.27-2.11-3.77-4.21-7.54-6.29-11.28-30.62,15.84-53.08,14.98-73.59,14.19-7.68-.3-14.93-.58-22.42-.02-29.15,2.17-50.29,36.44-62.91,56.92-2.77,4.49-5.16,8.36-7.18,11.12-1.68,2.29-6.13,8.36-12.65,6.3-5.1-1.62-7.15-7.15-8.49-12.35-4.95-19.32-8.11-85.96,40.68-137.07,13.95-14.61,17.67-41.97,7.53-55.25-10.53-13.78-35.48-11.43-68.44,6.44l-7.24-13.35c55.06-29.85,78.6-14.26,87.74-2.31,16.02,20.96,8.67,56.86-8.61,74.96-39.24,41.11-41.24,94.37-38.18,116.61,.65-1.04,1.29-2.09,1.91-3.08,13.22-21.44,37.83-61.35,74.71-64.09,8.35-.62,16.37-.31,24.13-.01,19.13,.74,38.73,1.49,65.64-12.29-14.33-25.9-26.17-47.66-27.93-50.89-6.6-9.33-8.9-19.14-6.84-29.17,5.08-24.76,36.66-46.7,70.02-66.72,16.56-9.93,31.27-12.1,43.75-6.44,15.51,7.04,22.33,24.25,24.88,32.98,10.85,3.18,14.24,12.6,17.28,21.04,.78,2.17,1.59,4.42,2.54,6.7,1.4,3.35,3.97,6.66,6.7,10.17,3.89,5,7.91,10.16,9.61,16.72,.87,3.35,.66,8.64-5.25,14.78-4.21,4.37-10.11,8.09-14.33,10.44-9.83,5.48-12.07,4.99-13.86,4.59-1.14-.25-1.99-.7-2.67-1.06-4.83-2.57-11.29-2.57-18.96-.18-6.76,21.3-13.59,51.31-14.17,70.06-.94,30.41,1.76,46.23,3.21,54.73,1.01,5.96,1.69,9.89-1.28,13.4-.98,1.16-3.18,3.1-6.92,3.1Zm-6.11-9.5h0Zm-39.14-89.03c13.25,23.8,26.22,46.74,35.72,62.86-.72-9.18-1.13-21-.67-36.04,.52-16.97,5.4-40.71,10.88-60.66-5.7,3.57-11.74,8.01-18.05,13.29-9.99,8.36-19.25,15.1-27.89,20.55Zm44.02-146.8c-6.17,0-13.37,2.45-21.5,7.32-27.24,16.35-59.02,37.57-62.95,56.75-1.21,5.92,.28,11.69,4.57,17.64l.29,.39,.23,.43c8.22,15.14,18,32.99,27.96,50.98,7.86-5,16.33-11.21,25.52-18.91,12.22-10.22,23.63-17.63,34.06-22.17,9.52-29.33,16.27-54.82,17.92-61.17l-.45-2.51c-.04-.19-4.05-21.01-17.53-27.09-2.47-1.11-5.18-1.67-8.12-1.67Zm30.83,87.07c4.78,0,9.23,.87,13.3,2.62,5.05-2.29,14.32-8.12,16.32-11.36-1.14-3.24-3.8-6.66-6.6-10.27-3.07-3.94-6.55-8.41-8.73-13.64-1.1-2.63-2.01-5.16-2.81-7.4-1.1-3.05-1.96-5.33-2.8-7.04-2.43,9.08-7.31,26.8-13.78,47.4,1.74-.21,3.44-.31,5.09-.31Z"/>
  <g>
    <path class="cls-1" d="M15.35,325.69h6.47v55.03h-6.47v-55.03Zm4.69,32.97l21.58-32.97h7.61l-28.96,42.66-.23-9.69Zm9.58-7.34l4.39-5.64,17.26,35.05h-7.65l-14-29.41Z"/>
    <path class="cls-1" d="M75.87,325.69h6.59l16.5,55.03h-7.04l-12.76-46.59-12.75,46.59h-7.04l16.5-55.03Zm-8.02,36.3h23.24v6.02h-23.24v-6.02Z"/>
    <path class="cls-1" d="M112.17,325.65h6.47v55.07h-6.47v-55.07Zm3.37,25.7h14.46c1.62,0,3.02-.33,4.22-.98,1.2-.66,2.11-1.62,2.74-2.88s.96-2.74,.98-4.43v-2.84c0-1.71-.32-3.22-.97-4.5s-1.56-2.27-2.74-2.95c-1.19-.68-2.6-1.02-4.24-1.02h-14.46v-6.09h14.04c3.05,0,5.7,.57,7.95,1.7,2.25,1.13,3.97,2.78,5.17,4.92,1.2,2.15,1.8,4.67,1.8,7.57v3.22c0,2.93-.61,5.48-1.82,7.65-1.21,2.17-2.93,3.83-5.17,5-2.23,1.16-4.88,1.74-7.93,1.74h-14.04v-6.09Zm13.36,4.39l6.09-1.74,11.43,26.72h-7.46l-10.07-24.98Z"/>
    <path class="cls-1" d="M161.53,325.69h6.47v55.03h-6.47v-55.03Zm3.75,0h25.74v6.09h-25.74v-6.09Zm0,24.68h22.71v6.06h-22.71v-6.06Zm0,24.26h25.74v6.09h-25.74v-6.09Z"/>
    <path class="cls-1" d="M205.93,325.69h5.94l22.9,44.85-1.36,.38v-45.23h6.36v55h-6.06l-22.94-44.47,1.48-.19v44.66h-6.32v-55Z"/>
    <path class="cls-1" d="M256.66,325.69h8.67v55.03h-8.67v-55.03Zm4.05,46.75h25.66v8.29h-25.66v-8.29Z"/>
    <path class="cls-1" d="M299.73,325.69h8.67v55.03h-8.67v-55.03Zm3.86,0h26.23v8.33h-26.23v-8.33Zm0,23.58h23.2v8.25h-23.2v-8.25Zm0,23.13h26.23v8.33h-26.23v-8.33Z"/>
    <path class="cls-1" d="M351.48,379.24c-2.52-1.36-4.47-3.31-5.85-5.85-1.38-2.54-2.06-5.51-2.06-8.91v-22.56c0-3.43,.69-6.41,2.06-8.93,1.38-2.52,3.32-4.47,5.85-5.83,2.52-1.36,5.49-2.04,8.9-2.04s6.37,.68,8.89,2.04c2.52,1.36,4.47,3.31,5.85,5.83,1.38,2.52,2.06,5.5,2.06,8.93v22.56c0,3.41-.69,6.38-2.06,8.91-1.38,2.54-3.33,4.49-5.85,5.85-2.52,1.36-5.49,2.04-8.89,2.04s-6.37-.68-8.9-2.04Zm13.13-7.53c1.21-.68,2.13-1.65,2.76-2.91,.63-1.26,.95-2.75,.95-4.47v-22.29c0-1.69-.32-3.17-.95-4.43-.63-1.26-1.55-2.23-2.76-2.91-1.21-.68-2.62-1.02-4.24-1.02s-3.03,.34-4.24,1.02c-1.21,.68-2.14,1.65-2.78,2.91s-.97,2.74-.97,4.43v22.29c0,1.72,.32,3.2,.97,4.47s1.57,2.23,2.78,2.91c1.21,.68,2.62,1.02,4.24,1.02s3.03-.34,4.24-1.02Z"/>
    <path class="cls-1" d="M392.43,325.69h8.33l18.89,40.88-1.02,1.1v-41.98h8.25v55h-8.44l-18.74-39.7,.98-1.1v40.8h-8.25v-55Z"/>
  </g>
</svg>