<?xml version="1.0" encoding="UTF-8"?>
<svg id="STYLE_GUIDE_definitivo" data-name="STYLE GUIDE definitivo" xmlns="http://www.w3.org/2000/svg" viewBox="0 0 448.51 434.75">
  <defs>
    <style>
      .cls-1 {
        fill: #9fa193;
      }

      .cls-2 {
        fill: #7c6a6c;
      }
    </style>
  </defs>
  <path class="cls-2" d="M321.39,318.51c-4.72,0-7.29-3.56-11.43-9.86-2.63-4-6.22-9.83-10.66-17.34-7.42-12.53-17.39-29.99-29.63-51.88-2.09-3.74-4.18-7.49-6.25-11.2-30.39,15.73-52.69,14.86-73.05,14.08-7.62-.29-14.82-.57-22.25-.02-28.94,2.16-49.92,36.17-62.45,56.5-2.75,4.46-5.12,8.3-7.13,11.04-1.66,2.27-6.08,8.3-12.56,6.25-5.06-1.6-7.1-7.1-8.42-12.26-4.92-19.17-8.05-85.33,40.38-136.06,13.84-14.5,17.54-41.66,7.47-54.84-10.45-13.67-35.21-11.35-67.93,6.39l-7.19-13.25c54.65-29.63,78.02-14.15,87.09-2.29,15.9,20.8,8.61,56.44-8.54,74.4-38.95,40.8-40.93,93.68-37.9,115.75,.64-1.03,1.28-2.07,1.89-3.06,13.12-21.28,37.55-60.89,74.16-63.62,8.29-.62,16.25-.31,23.95-.01,19,.73,38.45,1.48,65.16-12.2-14.23-25.71-25.97-47.31-27.72-50.52-6.55-9.26-8.84-19-6.79-28.96,5.05-24.58,36.39-46.36,69.5-66.23,16.43-9.86,31.04-12.01,43.43-6.4,15.4,6.98,22.17,24.07,24.69,32.74,10.77,3.16,14.14,12.5,17.16,20.89,.78,2.16,1.58,4.38,2.52,6.65,1.39,3.33,3.94,6.61,6.65,10.09,3.86,4.96,7.85,10.09,9.54,16.6,.86,3.33,.66,8.57-5.2,14.66-4.17,4.34-10.04,8.03-14.23,10.37-9.75,5.44-11.97,4.96-13.76,4.57-1.15-.25-1.98-.69-2.65-1.05-4.8-2.55-11.2-2.56-18.82-.18-6.71,21.14-13.49,50.93-14.06,69.54-.93,30.18,1.75,45.89,3.18,54.33,1.01,5.91,1.67,9.82-1.27,13.3-.97,1.15-3.15,3.08-6.87,3.08Zm-44.91-97.8c13.15,23.62,26.03,46.4,35.46,62.4-.71-9.11-1.12-20.85-.67-35.78,.52-16.85,5.36-40.42,10.8-60.21-5.65,3.55-11.66,7.96-17.92,13.19-9.92,8.3-19.11,14.99-27.68,20.4Zm43.7-145.72c-6.13,0-13.27,2.43-21.34,7.27-27.04,16.22-58.58,37.29-62.49,56.33-1.21,5.88,.28,11.6,4.54,17.5l.28,.39,.23,.42c8.16,15.03,17.86,32.74,27.75,50.61,7.81-4.97,16.2-11.13,25.33-18.77,12.13-10.14,23.46-17.5,33.81-22.01,9.45-29.12,16.15-54.42,17.79-60.72l-.45-2.49c-.04-.19-4.02-20.86-17.4-26.89-2.45-1.1-5.14-1.66-8.06-1.66Zm30.6,86.43c4.75,0,9.16,.86,13.21,2.6,5.02-2.27,14.21-8.06,16.2-11.27-1.13-3.22-3.77-6.61-6.55-10.19-3.05-3.92-6.5-8.35-8.66-13.54-1.09-2.61-1.99-5.12-2.79-7.34-1.09-3.03-1.95-5.3-2.78-6.99-2.41,9.02-7.26,26.6-13.68,47.05,1.72-.21,3.41-.31,5.05-.31Z"/>
  <g>
    <path class="cls-1" d="M13.53,357.92h6.42v54.63h-6.42v-54.63Zm4.66,32.72l21.42-32.72h7.55l-28.74,42.34-.23-9.62Zm9.5-7.29l4.36-5.6,17.13,34.79h-7.59l-13.9-29.19Z"/>
    <path class="cls-1" d="M73.61,357.92h6.54l16.38,54.63h-6.99l-12.66-46.25-12.66,46.25h-6.99l16.38-54.63Zm-7.97,36.03h23.07v5.97h-23.07v-5.97Z"/>
    <path class="cls-1" d="M109.65,357.88h6.42v54.67h-6.42v-54.67Zm3.34,25.51h14.35c1.6,0,3-.33,4.19-.98s2.1-1.6,2.72-2.86c.63-1.25,.95-2.72,.98-4.4v-2.82c0-1.7-.32-3.19-.96-4.47s-1.55-2.25-2.72-2.93c-1.18-.68-2.58-1.01-4.21-1.01h-14.35v-6.05h13.94c3.03,0,5.66,.56,7.89,1.69,2.23,1.13,3.94,2.75,5.13,4.88s1.79,4.63,1.79,7.51v3.19c0,2.91-.6,5.44-1.8,7.59-1.2,2.15-2.91,3.81-5.13,4.96s-4.84,1.73-7.87,1.73h-13.94v-6.05Zm13.26,4.36l6.05-1.73,11.35,26.53h-7.4l-9.99-24.8Z"/>
    <path class="cls-1" d="M158.64,357.92h6.42v54.63h-6.42v-54.63Zm3.72,0h25.55v6.05h-25.55v-6.05Zm0,24.5h22.54v6.01h-22.54v-6.01Zm0,24.08h25.55v6.05h-25.55v-6.05Z"/>
    <path class="cls-1" d="M202.72,357.92h5.9l22.73,44.52-1.35,.38v-44.9h6.31v54.59h-6.01l-22.77-44.15,1.46-.19v44.33h-6.27v-54.59Z"/>
    <path class="cls-1" d="M253.06,357.92h8.6v54.63h-8.6v-54.63Zm4.02,46.4h25.47v8.23h-25.47v-8.23Z"/>
    <path class="cls-1" d="M295.82,357.92h8.6v54.63h-8.6v-54.63Zm3.83,0h26.04v8.27h-26.04v-8.27Zm0,23.41h23.03v8.19h-23.03v-8.19Zm0,22.96h26.04v8.27h-26.04v-8.27Z"/>
    <path class="cls-1" d="M347.19,411.09c-2.5-1.35-4.44-3.29-5.8-5.8-1.37-2.52-2.05-5.47-2.05-8.85v-22.39c0-3.41,.68-6.36,2.05-8.87,1.37-2.5,3.3-4.43,5.8-5.79s5.45-2.03,8.83-2.03,6.32,.68,8.83,2.03,4.44,3.28,5.8,5.79c1.37,2.5,2.05,5.46,2.05,8.87v22.39c0,3.38-.68,6.33-2.05,8.85-1.37,2.52-3.3,4.45-5.8,5.8s-5.45,2.03-8.83,2.03-6.32-.68-8.83-2.03Zm13.04-7.48c1.2-.68,2.12-1.64,2.74-2.89,.62-1.25,.94-2.73,.94-4.43v-22.13c0-1.68-.31-3.14-.94-4.4-.63-1.25-1.54-2.22-2.74-2.89-1.2-.68-2.61-1.01-4.21-1.01s-3.01,.34-4.21,1.01c-1.2,.68-2.12,1.64-2.76,2.89-.64,1.25-.96,2.72-.96,4.4v22.13c0,1.7,.32,3.18,.96,4.43,.64,1.25,1.56,2.22,2.76,2.89,1.2,.68,2.6,1.01,4.21,1.01s3.01-.34,4.21-1.01Z"/>
    <path class="cls-1" d="M387.84,357.92h8.27l18.75,40.58-1.01,1.09v-41.67h8.19v54.59h-8.38l-18.6-39.41,.98-1.09v40.5h-8.19v-54.59Z"/>
  </g>
</svg>