<?xml version="1.0" encoding="UTF-8"?>
<svg id="STYLE_GUIDE_definitivo" data-name="STYLE GUIDE definitivo" xmlns="http://www.w3.org/2000/svg" viewBox="0 0 448.51 434.75">
  <defs>
    <style>
      .cls-1 {
        fill: #b7201d;
      }
    </style>
  </defs>
  <path class="cls-1" d="M326.35,295.04c-4.85,0-7.49-3.66-11.74-10.13-2.7-4.11-6.38-10.1-10.95-17.81-7.62-12.87-17.86-30.79-30.43-53.27-2.15-3.84-4.29-7.69-6.41-11.5-31.21,16.15-54.11,15.27-75.01,14.46-7.82-.3-15.21-.59-22.85-.02-29.71,2.21-51.25,37.15-64.12,58.02-2.82,4.57-5.26,8.52-7.32,11.34-1.71,2.33-6.24,8.53-12.89,6.42-5.2-1.65-7.29-7.29-8.65-12.59-5.05-19.69-8.26-87.61,41.47-139.7,14.21-14.89,18.01-42.78,7.67-56.31-10.73-14.04-36.16-11.65-69.75,6.56l-7.38-13.61c56.12-30.42,80.12-14.53,89.43-2.35,16.33,21.36,8.84,57.95-8.77,76.4-40,41.9-42.03,96.19-38.92,118.86,.66-1.06,1.32-2.13,1.94-3.14,13.47-21.85,38.56-62.53,76.15-65.33,8.51-.63,16.69-.32,24.6-.01,19.5,.76,39.47,1.52,66.9-12.53-14.61-26.4-26.67-48.57-28.46-51.87-6.73-9.51-9.08-19.51-6.98-29.73,5.18-25.24,37.36-47.6,71.36-68,16.87-10.12,31.88-12.33,44.59-6.57,15.81,7.17,22.76,24.72,25.36,33.61,11.06,3.24,14.52,12.84,17.62,21.44,.8,2.21,1.62,4.5,2.59,6.83,1.42,3.42,4.05,6.79,6.82,10.36,3.96,5.09,8.06,10.36,9.79,17.04,.89,3.42,.68,8.8-5.34,15.06-4.29,4.46-10.31,8.25-14.61,10.64-10.01,5.59-12.3,5.09-14.13,4.69-1.17-.26-2.03-.71-2.72-1.08-4.92-2.62-11.5-2.62-19.32-.19-6.89,21.71-13.85,52.3-14.44,71.41-.95,30.99,1.79,47.12,3.27,55.78,1.03,6.07,1.72,10.08-1.3,13.66-1,1.18-3.24,3.16-7.06,3.16Zm-6.22-9.68h0s0,0,0,0Zm-39.89-90.74c13.5,24.25,26.73,47.64,36.41,64.07-.73-9.35-1.15-21.41-.68-36.74,.53-17.3,5.5-41.5,11.09-61.83-5.8,3.64-11.97,8.17-18.4,13.55-10.18,8.52-19.62,15.4-28.43,20.94Zm44.87-149.63c-6.29,0-13.62,2.49-21.91,7.46-27.77,16.66-60.15,38.29-64.17,57.84-1.24,6.04,.29,11.92,4.66,17.97l.29,.4,.24,.44c8.38,15.43,18.34,33.62,28.5,51.96,8.01-5.1,16.64-11.42,26.01-19.27,12.45-10.42,24.09-17.97,34.72-22.6,9.7-29.9,16.59-55.88,18.27-62.34l-.46-2.56c-.04-.19-4.13-21.42-17.87-27.61-2.52-1.13-5.28-1.7-8.28-1.7Zm31.42,88.74c4.87,0,9.4,.89,13.56,2.67,5.15-2.33,14.59-8.27,16.64-11.57-1.16-3.3-3.87-6.79-6.73-10.46-3.13-4.02-6.67-8.58-8.89-13.91-1.12-2.68-2.05-5.26-2.87-7.54-1.12-3.11-2-5.44-2.85-7.18-2.47,9.26-7.46,27.31-14.04,48.32,1.77-.21,3.5-.32,5.19-.32Z"/>
  <g>
    <path class="cls-1" d="M10.23,335.5h6.6v56.09h-6.6v-56.09Zm4.78,33.6l21.99-33.6h7.75l-29.51,43.48-.23-9.88Zm9.76-7.48l4.47-5.75,17.59,35.72h-7.79l-14.27-29.98Z"/>
    <path class="cls-1" d="M71.91,335.5h6.71l16.82,56.09h-7.18l-13-47.49-13,47.49h-7.17l16.82-56.09Zm-8.18,37h23.69v6.13h-23.69v-6.13Z"/>
    <path class="cls-1" d="M108.91,335.46h6.6v56.13h-6.6v-56.13Zm3.43,26.19h14.74c1.65,0,3.08-.33,4.3-1,1.22-.67,2.15-1.65,2.8-2.93,.64-1.29,.98-2.79,1-4.51v-2.89c0-1.75-.33-3.28-.98-4.59-.66-1.31-1.59-2.31-2.8-3.01-1.21-.7-2.65-1.04-4.32-1.04h-14.74v-6.21h14.31c3.11,0,5.81,.58,8.1,1.74,2.29,1.16,4.04,2.83,5.27,5.02,1.22,2.19,1.83,4.76,1.83,7.72v3.28c0,2.98-.62,5.58-1.85,7.79-1.23,2.21-2.99,3.91-5.27,5.09-2.28,1.18-4.97,1.77-8.08,1.77h-14.31v-6.21Zm13.62,4.47l6.21-1.77,11.65,27.24h-7.6l-10.26-25.46Z"/>
    <path class="cls-1" d="M159.22,335.5h6.6v56.09h-6.6v-56.09Zm3.82,0h26.23v6.21h-26.23v-6.21Zm0,25.15h23.15v6.17h-23.15v-6.17Zm0,24.73h26.23v6.21h-26.23v-6.21Z"/>
    <path class="cls-1" d="M204.48,335.5h6.06l23.34,45.71-1.39,.39v-46.1h6.48v56.05h-6.17l-23.38-45.33,1.5-.19v45.52h-6.44v-56.05Z"/>
    <path class="cls-1" d="M256.18,335.5h8.83v56.09h-8.83v-56.09Zm4.13,47.64h26.16v8.45h-26.16v-8.45Z"/>
    <path class="cls-1" d="M300.08,335.5h8.83v56.09h-8.83v-56.09Zm3.93,0h26.73v8.49h-26.73v-8.49Zm0,24.03h23.65v8.41h-23.65v-8.41Zm0,23.57h26.73v8.49h-26.73v-8.49Z"/>
    <path class="cls-1" d="M352.82,390.09c-2.57-1.39-4.56-3.38-5.96-5.96-1.4-2.58-2.1-5.61-2.1-9.08v-22.99c0-3.5,.7-6.53,2.1-9.1,1.4-2.57,3.39-4.55,5.96-5.94,2.57-1.39,5.59-2.08,9.07-2.08s6.49,.69,9.07,2.08c2.57,1.39,4.56,3.37,5.96,5.94,1.4,2.57,2.1,5.61,2.1,9.1v22.99c0,3.47-.7,6.5-2.1,9.08-1.4,2.58-3.39,4.57-5.96,5.96-2.57,1.39-5.59,2.08-9.07,2.08s-6.5-.7-9.07-2.08Zm13.39-7.68c1.23-.69,2.17-1.68,2.82-2.97,.64-1.29,.96-2.8,.96-4.55v-22.72c0-1.72-.32-3.23-.96-4.51-.64-1.29-1.58-2.28-2.82-2.97s-2.67-1.04-4.32-1.04-3.09,.35-4.32,1.04-2.18,1.68-2.83,2.97c-.66,1.29-.98,2.79-.98,4.51v22.72c0,1.75,.33,3.27,.98,4.55,.66,1.29,1.6,2.28,2.83,2.97s2.67,1.04,4.32,1.04,3.09-.35,4.32-1.04Z"/>
    <path class="cls-1" d="M394.57,335.5h8.49l19.25,41.67-1.04,1.12v-42.78h8.41v56.05h-8.6l-19.1-40.47,1-1.12v41.59h-8.41v-56.05Z"/>
  </g>
</svg>